:FULLY-SPECIFIED
:FORCE-ALL-JOINTS-BE-3DOF
:DEGREES
1529
root -5.3761 15.4812 20.3055 571.827 3.85885 560.222
lfemur -53.3042 10.4811 -27.5909
ltibia 93.5824 0 0
lfoot -10.1326 18.9271 0
ltoes -24.3538 0 0
rfemur -42.8338 0.444783 16.9926
rtibia 67.407 0 0
rfoot -20.1705 -7.20837 0
rtoes -26.8078 0 0
lowerback 19.9463 0.631442 4.21979
upperback -1.24971 2.44857 3.28499
thorax -12.5634 1.05759 0.487608
lowerneck -3.29695 9.61686 4.77628
upperneck 3.94297 13.5135 -11.7977
head 2.64138 6.60472 -3.75478
lclavicle -1.79263e-14 1.08283e-14 0
lhumerus 78.074 -70.4127 31.5169
lradius 121.181 0 0
lwrist 15.5361 0 0
lhand -23.417 39.8998 0
lfingers 7.12502 0 0
lthumb 3.0423 -258.742 0
rclavicle -1.79263e-14 1.08283e-14 0
rhumerus -46.9603 54.6451 -83.8302
rradius 114.459 0 0
rwrist -46.615 0 0
rhand 8.73168 -32.9735 0
rfingers 7.12502 0 0
rthumb 33.9559 -60.1418 0
1530
root -5.41858 15.4982 20.3827 573.756 2.46456 561.42
lfemur -53.5565 10.6487 -27.7261
ltibia 93.6973 0 0
lfoot -10.1871 18.7686 0
ltoes -24.4739 0 0
rfemur -42.7491 0.397346 17.0508
rtibia 67.7158 0 0
rfoot -20.195 -7.28862 0
rtoes -26.8468 0 0
lowerback 19.9403 0.593496 4.15655
upperback -1.2449 2.38657 3.31889
thorax -12.5473 1.03223 0.577695
lowerneck -3.29472 9.60346 4.77283
upperneck 3.92704 13.4944 -11.8073
head 2.62795 6.59461 -3.75815
lclavicle -1.76966e-14 1.09728e-14 0
lhumerus 78.3505 -70.2544 31.5006
lradius 120.487 0 0
lwrist 15.0473 0 0
lhand -23.4673 39.7763 0
lfingers 7.12502 0 0
lthumb 2.99398 -254.243 0
rclavicle -1.76966e-14 1.09728e-14 0
rhumerus -48.032 54.9027 -84.6039
rradius 115.097 0 0
rwrist -47.2237 0 0
rhand 9.11818 -32.89 0
rfingers 7.12502 0 0
rthumb 34.3265 -60.0132 0
1531
root -5.46236 15.5147 20.4574 575.625 0.993934 562.49
lfemur -53.7535 10.813 -27.8465
ltibia 93.7414 0 0
lfoot -10.2504 18.6101 0
ltoes -24.6147 0 0
rfemur -42.685 0.326564 17.1056
rtibia 68.0545 0 0
rfoot -20.2076 -7.37523 0
rtoes -26.8561 0 0
lowerback 19.9305 0.554757 4.0769
upperback -1.23974 2.31931 3.35064
thorax -12.5284 1.00516 0.676271
lowerneck -3.29553 9.57219 4.75545
upperneck 3.91088 13.451 -11.8006
head 2.61393 6.57247 -3.75524
lclavicle -1.74476e-14 1.10895e-14 0
lhumerus 78.5015 -70.0289 31.5597
lradius 119.714 0 0
lwrist 14.5595 0 0
lhand -23.5183 39.6474 0
lfingers 7.12502 0 0
lthumb 2.94497 -249.41 0
rclavicle -1.74476e-14 1.10895e-14 0
rhumerus -49.072 55.1207 -85.371
rradius 115.738 0 0
rwrist -47.8137 0 0
rhand 9.49786 -32.7937 0
rfingers 7.12502 0 0
rthumb 34.6905 -59.8717 0
1532
root -5.50754 15.5307 20.5293 577.427 -0.554682 563.421
lfemur -53.8915 10.9733 -27.9511
ltibia 93.7106 0 0
lfoot -10.3229 18.452 0
ltoes -24.7771 0 0
rfemur -42.6428 0.231292 17.1566
rtibia 68.4238 0 0
rfoot -20.2075 -7.46813 0
rtoes -26.8339 0 0
lowerback 19.9165 0.515309 3.98006
upperback -1.23421 2.24669 3.38004
thorax -12.5064 0.976371 0.783569
lowerneck -3.29947 9.522 4.72327
upperneck 3.89451 13.3819 -11.7766
head 2.59931 6.53759 -3.74567
lclavicle -1.7179e-14 1.11763e-14 0
lhumerus 78.519 -69.7327 31.6985
lradius 118.86 0 0
lwrist 14.0741 0 0
lhand -23.5696 39.5133 0
lfingers 7.12502 0 0
lthumb 2.89577 -244.232 0
rclavicle -1.7179e-14 1.11763e-14 0
rhumerus -50.0756 55.2958 -86.1292
rradius 116.378 0 0
rwrist -48.3822 0 0
rhand 9.86928 -32.6843 0
rfingers 7.12502 0 0
rthumb 35.0464 -59.717 0
1533
root -5.55419 15.5461 20.598 579.157 -2.18293 564.202
lfemur -53.9667 11.1288 -28.0387
ltibia 93.6008 0 0
lfoot -10.4051 18.2948 0
ltoes -24.9621 0 0
rfemur -42.6237 0.110381 17.2034
rtibia 68.8245 0 0
rfoot -20.1939 -7.56721 0
rtoes -26.7786 0 0
lowerback 19.8982 0.475235 3.86529
upperback -1.2283 2.16861 3.40687
thorax -12.4814 0.945859 0.899823
lowerneck -3.30664 9.4518 4.67544
upperneck 3.87794 13.2856 -11.7341
head 2.5841 6.48924 -3.72904
lclavicle -1.68904e-14 1.12315e-14 0
lhumerus 78.3948 -69.3626 31.9213
lradius 117.924 0 0
lwrist 13.5928 0 0
lhand -23.6205 39.3742 0
lfingers 7.12502 0 0
lthumb 2.84685 -238.699 0
rclavicle -1.68904e-14 1.12315e-14 0
rhumerus -51.038 55.4251 -86.8765
rradius 117.015 0 0
rwrist -48.9262 0 0
rhand 10.231 -32.5616 0
rfingers 7.12502 0 0
rthumb 35.393 -59.5489 0
1534
root -5.60241 15.5609 20.6632 580.812 -3.89247 564.823
lfemur -53.9754 11.2787 -28.1081
ltibia 93.4079 0 0
lfoot -10.4975 18.1389 0
ltoes -25.1706 0 0
rfemur -42.6288 -0.0373147 17.2457
rtibia 69.257 0 0
rfoot -20.166 -7.67236 0
rtoes -26.6882 0 0
lowerback 19.8753 0.43462 3.7318
upperback -1.22197 2.08499 3.4309
thorax -12.4531 0.91361 1.02527
lowerneck -3.31713 9.36054 4.61113
upperneck 3.86119 13.1607 -11.6721
head 2.56831 6.4267 -3.70495
lclavicle -1.65813e-14 1.1253e-14 0
lhumerus 78.1208 -68.915 32.2326
lradius 116.902 0 0
lwrist 13.1169 0 0
lhand -23.6706 39.2303 0
lfingers 7.12502 0 0
lthumb 2.79873 -232.799 0
rclavicle -1.65813e-14 1.1253e-14 0
rhumerus -51.9547 55.5055 -87.6105
rradius 117.648 0 0
rwrist -49.443 0 0
rhand 10.5815 -32.4251 0
rfingers 7.12502 0 0
rthumb 35.7287 -59.3673 0
1535
root -5.65229 15.5749 20.7248 582.386 -5.68493 565.273
lfemur -53.9139 11.4224 -28.1582
ltibia 93.1277 0 0
lfoot -10.6005 17.9847 0
ltoes -25.4035 0 0
rfemur -42.6594 -0.212943 17.2829
rtibia 69.7222 0 0
rfoot -20.1231 -7.78349 0
rtoes -26.5609 0 0
lowerback 19.8476 0.393548 3.57883
upperback -1.21521 1.99574 3.45194
thorax -12.4213 0.879614 1.16014
lowerneck -3.33104 9.24714 4.52947
upperneck 3.84429 13.0058 -11.5896
head 2.55194 6.34925 -3.67303
lclavicle -1.62516e-14 1.1239e-14 0
lhumerus 77.6889 -68.3865 32.6366
lradius 115.793 0 0
lwrist 12.648 0 0
lhand -23.7194 39.0817 0
lfingers 7.12502 0 0
lthumb 2.75188 -226.523 0
rclavicle -1.62516e-14 1.1239e-14 0
rhumerus -52.8208 55.534 -88.329
rradius 118.272 0 0
rwrist -49.9298 0 0
rhand 10.9195 -32.2747 0
rfingers 7.12502 0 0
rthumb 36.0522 -59.1719 0
1536
root -5.70392 15.5881 20.7823 583.873 -7.56197 565.542
lfemur -53.7785 11.559 -28.1878
ltibia 92.7562 0 0
lfoot -10.7146 17.8326 0
ltoes -25.6619 0 0
rfemur -42.7166 -0.417649 17.3149
rtibia 70.2207 0 0
rfoot -20.0643 -7.90049 0
rtoes -26.3951 0 0
lowerback 19.8149 0.352102 3.40561
upperback -1.20801 1.90075 3.46976
thorax -12.3859 0.84386 1.30467
lowerneck -3.34847 9.11053 4.42963
upperneck 3.82724 12.8192 -11.4856
head 2.535 6.25617 -3.63286
lclavicle -1.59008e-14 1.11875e-14 0
lhumerus 77.0909 -67.7737 33.1378
lradius 114.594 0 0
lwrist 12.1875 0 0
lhand -23.7664 38.9287 0
lfingers 7.12502 0 0
lthumb 2.70681 -219.86 0
rclavicle -1.59008e-14 1.11875e-14 0
rhumerus -53.6316 55.5076 -89.0299
rradius 118.887 0 0
rwrist -50.3835 0 0
rhand 11.2434 -32.11 0
rfingers 7.12502 0 0
rthumb 36.3622 -58.9626 0
